# xmcd CD database file
#
# Track frame offsets:
#	150
#	12077
#	33972
#	48767
#	65960
#	80426
#	98372
#	112399
#	132586
#	150892
#	161941
#	169848
#	182136
#	200113
#	218952
#	234515
#	247414
#	250278
#
# Disc length: 3566 seconds
#
# Revision: 5
# Processed by: cddbd v1.5.2PL0 Copyright (c) Steve Scherf et al.
# Submitted via: CDex 2.21
#
DISCID=040dec12
DTITLE=Alexandra Scott - I Love you so much always
DYEAR=2013
DGENRE=Country
TTITLE0=To Get Over
TTITLE1=Smell of Cut Grass
TTITLE2=Coney Island Baby
TTITLE3=Gas Station Lover
TTITLE4=Sorrow on a White Horse
TTITLE5=If I Go to Heaven
TTITLE6=Stranger
TTITLE7=Elvis
TTITLE8=That Honey
TTITLE9=I'm on Fire
TTITLE10=La Vie Est Vaine
TTITLE11=Little Black Cloud
TTITLE12=My Moonbeam
TTITLE13=Clam Crab Cockle Cowrie
TTITLE14=Your Shirt is a Window
TTITLE15=Hymn
TTITLE16=Duet
TTITLE17=Gas Station Lover (Radio Edit)
EXTD=YEAR: 2013
EXTT0=
EXTT1=
EXTT2=
EXTT3=
EXTT4=
EXTT5=
EXTT6=
EXTT7=
EXTT8=
EXTT9=
EXTT10=
EXTT11=
EXTT12=
EXTT13=
EXTT14=
EXTT15=
EXTT16=
EXTT17=
PLAYORDER=
